<svg width="119" height="112" viewBox="0 0 119 112" fill="none" xmlns="http://www.w3.org/2000/svg">
<path d="M14 14C14 6.34375 20.3438 0 28 0H91C98.6562 0 105 6.34375 105 14V24.5H91V14H28V56H59.5V77H16.8438C7.4375 77 0 69.5625 0 60.1562C0 57.9688 1.96875 56 4.15625 56H14V14ZM70 49C70 41.3438 76.3438 35 84 35H105C112.656 35 119 41.3438 119 49V98C119 105.656 112.656 112 105 112H84C76.3438 112 70 105.656 70 98V49ZM89.25 87.5C86.4062 87.5 84 89.9062 84 92.75C84 95.5938 86.4062 98 89.25 98H99.75C102.594 98 105 95.5938 105 92.75C105 89.9062 102.594 87.5 99.75 87.5H89.25Z" fill="#CFD5DD"/>
</svg>
