<svg width="140" height="102" viewBox="0 0 140 102" fill="none" xmlns="http://www.w3.org/2000/svg">
<path d="M70 0C82.4688 0 92.75 10.2812 92.75 22.75C92.75 35.2188 82.4688 45.5 70 45.5C57.5312 45.5 47.25 35.2188 47.25 22.75C47.25 10.2812 57.5312 0 70 0ZM21 15.75C29.75 15.75 36.75 22.75 36.75 31.5C36.75 40.25 29.75 47.25 21 47.25C12.25 47.25 5.25 40.25 5.25 31.5C5.25 22.75 12.25 15.75 21 15.75ZM0 87.5C0 71.9688 12.4688 59.5 28 59.5C30.8438 59.5 33.4688 59.9375 36.0938 60.5938C28.875 68.6875 24.5 79.4062 24.5 91V94.5C24.5 96.9062 24.9375 99.3125 26.0312 101.5H7C3.0625 101.5 0 98.4375 0 94.5V87.5ZM113.969 101.5C115.062 99.3125 115.5 96.9062 115.5 94.5V91C115.5 79.4062 111.125 68.6875 103.906 60.5938C106.531 59.9375 109.156 59.5 112 59.5C127.531 59.5 140 71.9688 140 87.5V94.5C140 98.4375 136.938 101.5 133 101.5H113.969ZM103.25 31.5C103.25 22.75 110.25 15.75 119 15.75C127.75 15.75 134.75 22.75 134.75 31.5C134.75 40.25 127.75 47.25 119 47.25C110.25 47.25 103.25 40.25 103.25 31.5ZM35 91C35 71.75 50.75 56 70 56C89.25 56 105 71.75 105 91V94.5C105 98.4375 101.938 101.5 98 101.5H42C38.0625 101.5 35 98.4375 35 94.5V91Z" fill="#CFD5DD"/>
</svg>
