<svg width="128" height="98" viewBox="0 0 128 98" fill="none" xmlns="http://www.w3.org/2000/svg">
<path d="M63.6562 14C43.75 14 25.8125 21.875 12.4688 34.7812C9.84375 37.4062 5.25 37.4062 2.625 34.5625C0 31.7188 0 27.3438 2.84375 24.7188C18.5938 9.40625 40.0312 0 63.6562 0C87.2812 0 108.719 9.40625 124.469 24.7188C127.312 27.3438 127.312 31.7188 124.688 34.5625C122.062 37.4062 117.469 37.4062 114.844 34.7812C101.5 21.875 83.5625 14 63.6562 14ZM53.1562 87.5C53.1562 81.5938 57.75 77 63.6562 77C69.5625 77 74.1562 81.5938 74.1562 87.5C74.1562 93.4062 69.5625 98 63.6562 98C57.75 98 53.1562 93.4062 53.1562 87.5ZM37.4062 64.3125C34.7812 67.375 30.4062 67.5938 27.5625 64.9688C24.7188 62.3438 24.2812 57.9688 26.9062 55.125C35.875 44.8438 49 38.5 63.6562 38.5C78.3125 38.5 91.4375 44.8438 100.406 55.125C103.031 57.9688 102.594 62.3438 99.75 64.9688C96.9062 67.5938 92.5312 67.1562 89.9062 64.3125C83.5625 57.0938 74.1562 52.5 63.6562 52.5C53.1562 52.5 43.75 57.0938 37.4062 64.3125Z" fill="#CFD5DD"/>
</svg>
