<svg width="11" height="12" viewBox="0 0 11 12" fill="none" xmlns="http://www.w3.org/2000/svg">
<path d="M3.5625 0.5625V1.5H6.9375V0.5625C6.9375 0.257812 7.17188 0 7.5 0C7.80469 0 8.0625 0.257812 8.0625 0.5625V1.5H9C9.82031 1.5 10.5 2.17969 10.5 3V3.375V4.5V10.5C10.5 11.3438 9.82031 12 9 12H1.5C0.65625 12 0 11.3438 0 10.5V4.5V3.375V3C0 2.17969 0.65625 1.5 1.5 1.5H2.4375V0.5625C2.4375 0.257812 2.67188 0 3 0C3.30469 0 3.5625 0.257812 3.5625 0.5625ZM1.125 4.5V10.5C1.125 10.7109 1.28906 10.875 1.5 10.875H9C9.1875 10.875 9.375 10.7109 9.375 10.5V4.5H1.125Z" fill="#206A83"/>
</svg>
