<svg width="32" height="36" viewBox="0 0 32 36" fill="none" xmlns="http://www.w3.org/2000/svg">
<path d="M28.125 6.04688H28.0547C27.7031 5.69531 26.9297 5.27344 25.7344 4.85156C23.3438 4.00781 19.7578 3.375 15.75 3.375C11.6719 3.375 8.08594 4.00781 5.69531 4.85156C4.5 5.27344 3.72656 5.69531 3.375 6.04688V12.3047C4.28906 12.7969 5.55469 13.2891 7.17188 13.7109C9.5625 14.2734 12.5156 14.625 15.75 14.625C18.9141 14.625 21.8672 14.2734 24.2578 13.7109C25.875 13.2891 27.1406 12.7969 28.125 12.3047V6.04688ZM28.125 16.0312C27.1406 16.3828 26.1562 16.7344 25.0312 17.0156C22.3594 17.6484 19.125 18 15.75 18C12.3047 18 9.07031 17.6484 6.39844 17.0156C5.27344 16.7344 4.28906 16.3828 3.375 16.0312V21.3047C4.28906 21.7969 5.55469 22.2891 7.17188 22.7109C9.5625 23.2734 12.5156 23.625 15.75 23.625C18.9141 23.625 21.8672 23.2734 24.2578 22.7109C25.875 22.2891 27.1406 21.7969 28.125 21.3047V16.0312ZM3.375 29.9531V30.0234C3.79688 30.3047 4.5 30.7969 5.69531 31.2188C8.08594 32.0625 11.6719 32.625 15.75 32.625C19.7578 32.625 23.3438 32.0625 25.7344 31.2188C26.9297 30.7969 27.7031 30.3047 28.0547 30.0234L28.125 29.9531V25.0312C27.1406 25.3828 26.1562 25.7344 25.0312 26.0156C22.3594 26.6484 19.125 27 15.75 27C12.3047 27 9.07031 26.6484 6.39844 26.0156C5.27344 25.7344 4.28906 25.3828 3.375 25.0312V29.9531ZM28.2656 29.8125L28.1953 29.8828C28.2656 29.8125 28.2656 29.8125 28.2656 29.8125ZM3.23438 29.8125C3.23438 29.8125 3.23438 29.8125 3.23438 29.8828C3.23438 29.8125 3.23438 29.8125 3.23438 29.8125ZM3.23438 6.25781V6.1875V6.25781ZM28.2656 6.1875V6.25781V6.1875ZM31.5 30.375C31.5 33.5391 24.3984 36 15.75 36C7.03125 36 0 33.5391 0 30.375V5.625C0 2.53125 7.03125 0 15.75 0C24.3984 0 31.5 2.53125 31.5 5.625V30.375Z" fill="#7F5F01"/>
</svg>
