<svg width="12" height="16" viewBox="0 0 12 16" fill="none" xmlns="http://www.w3.org/2000/svg">
<path d="M10 15C10.5312 15 11 14.5625 11 14V6H7.5C6.65625 6 6 5.34375 6 4.5V1H2C1.4375 1 1 1.46875 1 2V14C1 14.5625 1.4375 15 2 15H10ZM7.5 5H10.9688C10.9375 4.9375 10.9062 4.84375 10.8438 4.78125L7.21875 1.15625C7.15625 1.09375 7.0625 1.0625 7 1.03125V4.5C7 4.78125 7.21875 5 7.5 5ZM2 0H6.875C7.25 0 7.65625 0.1875 7.9375 0.46875L11.5312 4.0625C11.8125 4.34375 12 4.75 12 5.125V14C12 15.125 11.0938 16 10 16H2C0.875 16 0 15.125 0 14V2C0 0.90625 0.875 0 2 0ZM2 2.5C2 2.25 2.21875 2 2.5 2H4.5C4.75 2 5 2.25 5 2.5C5 2.78125 4.75 3 4.5 3H2.5C2.21875 3 2 2.78125 2 2.5ZM2 4.5C2 4.25 2.21875 4 2.5 4H4.5C4.75 4 5 4.25 5 4.5C5 4.78125 4.75 5 4.5 5H2.5C2.21875 5 2 4.78125 2 4.5ZM7 13.5C7 13.25 7.21875 13 7.5 13H9.5C9.75 13 10 13.25 10 13.5C10 13.7812 9.75 14 9.5 14H7.5C7.21875 14 7 13.7812 7 13.5ZM9 10.5V8.5H3V10.5H9ZM3 7.5H9C9.53125 7.5 10 7.96875 10 8.5V10.5C10 11.0625 9.53125 11.5 9 11.5H3C2.4375 11.5 2 11.0625 2 10.5V8.5C2 7.96875 2.4375 7.5 3 7.5Z" fill="#CFD5DD"/>
</svg>
