<svg width="12" height="16" viewBox="0 0 12 16" fill="none" xmlns="http://www.w3.org/2000/svg">
<path d="M10 15C10.5312 15 11 14.5625 11 14V6H7.5C6.65625 6 6 5.34375 6 4.5V1H2C1.4375 1 1 1.46875 1 2V14C1 14.5625 1.4375 15 2 15H10ZM7.5 5H10.9688C10.9375 4.9375 10.9062 4.84375 10.8438 4.78125L7.21875 1.15625C7.15625 1.09375 7.0625 1.0625 7 1.03125V4.5C7 4.78125 7.21875 5 7.5 5ZM2 0H6.875C7.25 0 7.65625 0.1875 7.9375 0.46875L11.5312 4.0625C11.8125 4.34375 12 4.75 12 5.125V14C12 15.125 11.0938 16 10 16H2C0.875 16 0 15.125 0 14V2C0 0.90625 0.875 0 2 0ZM6.5 7.5V13.5C6.5 13.7812 6.25 14 6 14C5.71875 14 5.5 13.7812 5.5 13.5V7.5C5.5 7.25 5.71875 7 6 7C6.25 7 6.5 7.25 6.5 7.5ZM9.5 9.5V13.5C9.5 13.7812 9.25 14 9 14C8.71875 14 8.5 13.7812 8.5 13.5V9.5C8.5 9.25 8.71875 9 9 9C9.25 9 9.5 9.25 9.5 9.5ZM3.5 11.5V13.5C3.5 13.7812 3.25 14 3 14C2.71875 14 2.5 13.7812 2.5 13.5V11.5C2.5 11.25 2.71875 11 3 11C3.25 11 3.5 11.25 3.5 11.5Z" fill="#CFD5DD"/>
</svg>
