<svg width="13" height="12" viewBox="0 0 13 12" fill="none" xmlns="http://www.w3.org/2000/svg">
<path d="M6.28125 10.875C6.44531 10.875 6.91406 10.7109 7.38281 9.75C7.59375 9.32812 7.78125 8.83594 7.89844 8.25H4.64062C4.78125 8.83594 4.94531 9.32812 5.15625 9.75C5.64844 10.7109 6.09375 10.875 6.28125 10.875ZM4.45312 7.125H8.08594C8.13281 6.77344 8.15625 6.39844 8.15625 6C8.15625 5.625 8.13281 5.25 8.08594 4.875H4.45312C4.40625 5.25 4.40625 5.625 4.40625 6C4.40625 6.39844 4.40625 6.77344 4.45312 7.125ZM4.64062 3.75H7.89844C7.78125 3.1875 7.59375 2.69531 7.38281 2.27344C6.91406 1.3125 6.44531 1.125 6.28125 1.125C6.09375 1.125 5.64844 1.3125 5.15625 2.27344C4.94531 2.69531 4.78125 3.1875 4.64062 3.75ZM9.21094 4.875C9.25781 5.25 9.25781 5.625 9.25781 6C9.25781 6.39844 9.25781 6.77344 9.21094 7.125H11.0156C11.1094 6.77344 11.1562 6.39844 11.1562 6C11.1562 5.625 11.1094 5.25 11.0156 4.875H9.21094ZM10.5938 3.75C10.1016 2.78906 9.28125 2.01562 8.29688 1.57031C8.625 2.17969 8.88281 2.92969 9.04688 3.75H10.5938ZM3.49219 3.75C3.65625 2.92969 3.91406 2.17969 4.24219 1.57031C3.25781 2.01562 2.4375 2.78906 1.94531 3.75H3.49219ZM1.52344 4.875C1.45312 5.25 1.40625 5.625 1.40625 6C1.40625 6.39844 1.42969 6.77344 1.52344 7.125H3.32812C3.28125 6.77344 3.28125 6.39844 3.28125 6C3.28125 5.625 3.28125 5.25 3.32812 4.875H1.52344ZM8.29688 10.4531C9.28125 10.0078 10.1016 9.23438 10.5938 8.25H9.04688C8.88281 9.09375 8.625 9.84375 8.29688 10.4531ZM4.24219 10.4531C3.91406 9.84375 3.65625 9.09375 3.49219 8.25H1.94531C2.4375 9.23438 3.25781 10.0078 4.24219 10.4531ZM6.28125 12C4.125 12 2.15625 10.875 1.07812 9C0 7.14844 0 4.875 1.07812 3C2.15625 1.14844 4.125 0 6.28125 0C8.41406 0 10.3828 1.14844 11.4609 3C12.5391 4.875 12.5391 7.14844 11.4609 9C10.3828 10.875 8.41406 12 6.28125 12Z" fill="#206A83"/>
</svg>
