<svg width="16" height="16" viewBox="0 0 16 16" fill="none" xmlns="http://www.w3.org/2000/svg">
<path d="M1 8V9.5C1 9.78125 0.75 10 0.5 10C0.21875 10 0 9.78125 0 9.5V8C0 3.59375 3.5625 0 8 0C12.4062 0 16 3.59375 16 8V12.5312C16 13.9062 14.875 15.0312 13.5 15.0312L10.9062 15C10.6875 15.5938 10.125 16 9.5 16H7.5C6.65625 16 6 15.3438 6 14.5C6 13.6875 6.65625 13 7.5 13H9.5C10.125 13 10.6875 13.4375 10.9062 14L13.5 14.0312C14.3125 14.0312 15 13.3438 15 12.5312V8C15 4.15625 11.8438 1 8 1C4.125 1 1 4.15625 1 8ZM10 14.5C10 14.25 9.75 14 9.5 14H7.5C7.21875 14 7 14.25 7 14.5C7 14.7812 7.21875 15 7.5 15H9.5C9.75 15 10 14.7812 10 14.5ZM4.5 7C3.65625 7 3 7.6875 3 8.5V9.5C3 10.3438 3.65625 11 4.5 11H5V7H4.5ZM2 8.5C2 7.125 3.09375 6 4.5 6H5C5.53125 6 6 6.46875 6 7V11C6 11.5625 5.53125 12 5 12H4.5C3.09375 12 2 10.9062 2 9.5V8.5ZM11 7V11H11.5C12.3125 11 13 10.3438 13 9.5V8.5C13 7.6875 12.3125 7 11.5 7H11ZM11.5 6C12.875 6 14 7.125 14 8.5V9.5C14 10.9062 12.875 12 11.5 12H11C10.4375 12 10 11.5625 10 11V7C10 6.46875 10.4375 6 11 6H11.5Z" fill="#CFD5DD"/>
</svg>
