<svg width="20" height="16" viewBox="0 0 20 16" fill="none" xmlns="http://www.w3.org/2000/svg">
<path d="M4 1C3.4375 1 3 1.46875 3 2V9H11V10H3H2H1.03125C1.21875 10.5938 1.75 11 2.375 11H11V12H2.375C1.0625 12 0 10.9375 0 9.625C0 9.28125 0.25 9 0.59375 9H2V2C2 0.90625 2.875 0 4 0H14C15.0938 0 16 0.90625 16 2V3H15V2C15 1.46875 14.5312 1 14 1H4ZM19 14.5V5.5C19 5.25 18.75 5 18.5 5H13.5C13.2188 5 13 5.25 13 5.5V14.5C13 14.7812 13.2188 15 13.5 15H18.5C18.75 15 19 14.7812 19 14.5ZM13.5 16C12.6562 16 12 15.3438 12 14.5V5.5C12 4.6875 12.6562 4 13.5 4H18.5C19.3125 4 20 4.6875 20 5.5V14.5C20 15.3438 19.3125 16 18.5 16H13.5Z" fill="#CFD5DD"/>
</svg>
