<svg width="16" height="16" viewBox="0 0 16 16" fill="none" xmlns="http://www.w3.org/2000/svg">
<path d="M8 0C8.25 0 8.5 0.25 8.5 0.5V2.03125C11.4062 2.28125 13.7188 4.59375 13.9688 7.5H15.5C15.75 7.5 16 7.75 16 8C16 8.28125 15.75 8.5 15.5 8.5H13.9688C13.7188 11.4375 11.4062 13.75 8.5 14V15.5C8.5 15.7812 8.25 16 8 16C7.71875 16 7.5 15.7812 7.5 15.5V14C4.5625 13.75 2.25 11.4375 2 8.5H0.5C0.21875 8.5 0 8.28125 0 8C0 7.75 0.21875 7.5 0.5 7.5H2C2.25 4.59375 4.5625 2.28125 7.5 2.03125V0.5C7.5 0.25 7.71875 0 8 0ZM3 8C3 9.8125 3.9375 11.4375 5.5 12.3438C7.03125 13.25 8.9375 13.25 10.5 12.3438C12.0312 11.4375 13 9.8125 13 8C13 6.21875 12.0312 4.59375 10.5 3.6875C8.9375 2.78125 7.03125 2.78125 5.5 3.6875C3.9375 4.59375 3 6.21875 3 8ZM10 8C10 7.3125 9.59375 6.65625 9 6.28125C8.375 5.9375 7.59375 5.9375 7 6.28125C6.375 6.65625 6 7.3125 6 8C6 8.71875 6.375 9.375 7 9.75C7.59375 10.0938 8.375 10.0938 9 9.75C9.59375 9.375 10 8.71875 10 8ZM5 8C5 6.9375 5.5625 5.96875 6.5 5.40625C7.40625 4.875 8.5625 4.875 9.5 5.40625C10.4062 5.96875 11 6.9375 11 8C11 9.09375 10.4062 10.0625 9.5 10.625C8.5625 11.1562 7.40625 11.1562 6.5 10.625C5.5625 10.0625 5 9.09375 5 8Z" fill="#CFD5DD"/>
</svg>
