<svg width="18" height="14" viewBox="0 0 18 14" fill="none" xmlns="http://www.w3.org/2000/svg">
<path d="M8.5 1H1.5C1.21875 1 1 1.25 1 1.5V5.5C1 5.78125 1.21875 6 1.5 6H8.5C8.75 6 9 5.78125 9 5.5V1.5C9 1.25 8.75 1 8.5 1ZM1.5 0H8.5C9.3125 0 10 0.6875 10 1.5V5.5C10 6.34375 9.3125 7 8.5 7H1.5C0.65625 7 0 6.34375 0 5.5V1.5C0 0.6875 0.65625 0 1.5 0ZM16.5 1H13.5C13.2188 1 13 1.25 13 1.5V9.5C13 9.78125 13.2188 10 13.5 10H16.5C16.75 10 17 9.78125 17 9.5V1.5C17 1.25 16.75 1 16.5 1ZM13.5 0H16.5C17.3125 0 18 0.6875 18 1.5V9.5C18 10.3438 17.3125 11 16.5 11H13.5C12.6562 11 12 10.3438 12 9.5V1.5C12 0.6875 12.6562 0 13.5 0ZM3.5 9.5C3.21875 9.5 3 9.75 3 10V12.5C3 12.7812 3.21875 13 3.5 13H9C9.25 13 9.5 12.7812 9.5 12.5V10C9.5 9.75 9.25 9.5 9 9.5H3.5ZM2 10C2 9.1875 2.65625 8.5 3.5 8.5H9C9.8125 8.5 10.5 9.1875 10.5 10V12.5C10.5 13.3438 9.8125 14 9 14H3.5C2.65625 14 2 13.3438 2 12.5V10Z" fill="#11141A"/>
</svg>
