<svg width="16" height="14" viewBox="0 0 16 14" fill="none" xmlns="http://www.w3.org/2000/svg">
<path d="M14.9688 6.96875L10.8438 3.0625C10.8125 3.03125 10.75 3 10.6875 3C10.5938 3 10.5 3.09375 10.5 3.21875V5C10.5 5.28125 10.25 5.5 10 5.5H6.25C6.09375 5.5 6 5.625 6 5.75V8.25C6 8.40625 6.09375 8.5 6.25 8.5H10C10.25 8.5 10.5 8.75 10.5 9V10.8125C10.5 10.9062 10.5938 11 10.6875 11C10.75 11 10.8125 11 10.8438 10.9688L14.9688 7.0625C14.9688 7.0625 15 7.03125 15 7L14.9688 6.96875ZM16 7C16 7.3125 15.875 7.59375 15.6562 7.8125L11.5312 11.6875C11.3125 11.9062 11 12 10.6875 12C10.0312 12 9.5 11.4688 9.5 10.8125V9.5H6.25C5.53125 9.5 5 8.96875 5 8.25V5.75C5 5.0625 5.53125 4.5 6.25 4.5H9.5V3.21875C9.5 2.5625 10.0312 2 10.6875 2C11 2 11.3125 2.125 11.5312 2.34375L15.6562 6.21875C15.875 6.4375 16 6.71875 16 7ZM5.5 1H2.5C1.65625 1 1 1.6875 1 2.5V11.5C1 12.3438 1.65625 13 2.5 13H5.5C5.75 13 6 13.25 6 13.5C6 13.7812 5.75 14 5.5 14H2.5C1.09375 14 0 12.9062 0 11.5V2.5C0 1.125 1.09375 0 2.5 0H5.5C5.75 0 6 0.25 6 0.5C6 0.78125 5.75 1 5.5 1Z" fill="#CFD5DD"/>
</svg>
