<svg width="13" height="13" viewBox="0 0 13 13" fill="none" xmlns="http://www.w3.org/2000/svg">
<path d="M5.64844 0.210938L7.24219 1.80469L7.85156 1.19531C8.08594 0.960938 8.4375 0.796875 8.8125 0.796875C9.16406 0.796875 9.51562 0.960938 9.77344 1.19531L10.8516 2.27344C11.0859 2.53125 11.25 2.88281 11.25 3.23438C11.25 3.60938 11.0859 3.96094 10.8516 4.19531L10.2422 4.82812L11.8359 6.42188C12.0469 6.63281 12.0469 6.98438 11.8359 7.19531L9.1875 9.82031C8.97656 10.0547 8.625 10.0547 8.41406 9.82031L7.03125 8.46094C7.26562 9.65625 6.96094 10.9453 6.11719 11.9062C6.02344 12 5.92969 12.0469 5.8125 12.0469H5.78906C5.67188 12.0469 5.57812 12 5.48438 11.9297L3.1875 9.63281L2.0625 10.7578C1.85156 10.9922 1.5 10.9922 1.28906 10.7578C1.05469 10.5469 1.05469 10.1953 1.28906 9.96094L2.41406 8.83594L0.117188 6.5625C0.0234375 6.46875 0 6.375 0 6.25781V6.23438C0 6.11719 0.046875 6 0.117188 5.92969C1.10156 5.08594 2.39062 4.78125 3.58594 4.99219L2.22656 3.63281C1.99219 3.42188 1.99219 3.07031 2.22656 2.83594L4.85156 0.210938C5.0625 0 5.41406 0 5.64844 0.210938ZM6.44531 7.00781L10.0547 3.39844C10.1016 3.375 10.125 3.30469 10.125 3.23438C10.125 3.1875 10.1016 3.11719 10.0547 3.07031L8.97656 1.99219C8.92969 1.94531 8.85938 1.92188 8.8125 1.92188C8.74219 1.92188 8.67188 1.94531 8.64844 1.99219L5.03906 5.60156C5.27344 5.74219 5.48438 5.92969 5.67188 6.11719L5.92969 6.375C6.11719 6.5625 6.30469 6.77344 6.44531 7.00781ZM6.44531 2.60156L5.25 1.40625L3.42188 3.23438L4.61719 4.42969L6.44531 2.60156ZM8.8125 8.64844L10.6406 6.79688L9.44531 5.60156L7.61719 7.45312L8.8125 8.64844ZM5.13281 7.17188L4.875 6.91406C3.98438 6 2.60156 5.8125 1.5 6.35156L5.69531 10.5469C6.23438 9.44531 6.04688 8.0625 5.13281 7.17188Z" fill="#206A83"/>
</svg>
