<svg width="17" height="17" viewBox="0 0 17 17" fill="none" xmlns="http://www.w3.org/2000/svg">
<path d="M2.09375 1.15625L1.15625 2.09375L3.4375 5.0625H5.09375V3.4375L2.09375 1.15625ZM6.09375 5.375L9.25 8.5625C10.1875 7.9375 11.4688 8.0625 12.2812 8.875L15.7812 12.375C16.1875 12.75 16.1875 13.4062 15.7812 13.7812L13.7812 15.7812C13.4062 16.1875 12.75 16.1875 12.375 15.7812L8.875 12.2812C8.0625 11.4688 7.9375 10.1875 8.5625 9.25L5.375 6.0625C5.34375 6.0625 5.34375 6.0625 5.3125 6.0625H3.3125C3.09375 6.0625 2.875 5.96875 2.71875 5.78125L0.21875 2.53125C0 2.21875 0.03125 1.8125 0.3125 1.53125L1.5625 0.28125C1.8125 0.03125 2.25 0 2.53125 0.21875L5.78125 2.71875C5.96875 2.875 6.09375 3.09375 6.09375 3.3125V5.3125C6.09375 5.34375 6.09375 5.34375 6.09375 5.375ZM9.59375 9.5625C9.03125 10.125 9.03125 11.0312 9.59375 11.5625L13.0938 15.0625L15.0938 13.0625L11.5938 9.5625C11.0312 9.03125 10.125 9.03125 9.59375 9.5625ZM3.34375 13.3125C3.34375 13.5938 3.09375 13.8125 2.84375 13.8125C2.5625 13.8125 2.34375 13.5938 2.34375 13.3125C2.34375 13.0625 2.5625 12.8125 2.84375 12.8125C3.09375 12.8125 3.34375 13.0625 3.34375 13.3125ZM0.8125 11.8438L5.28125 7.375L6 8.09375L1.53125 12.5625C1.25 12.8438 1.09375 13.2188 1.09375 13.5938C1.09375 14.4062 1.75 15.0625 2.5625 15.0625C2.9375 15.0625 3.3125 14.9062 3.59375 14.625L7.1875 11.0312C7.25 11.4062 7.34375 11.7812 7.53125 12.125L4.3125 15.3438C3.84375 15.8125 3.21875 16.0625 2.5625 16.0625C1.1875 16.0625 0.09375 14.9688 0.09375 13.5938C0.09375 12.9375 0.34375 12.3125 0.8125 11.8438ZM15.0625 5.0625C15.0625 4.75 15.0312 4.4375 14.9375 4.15625L13.4375 5.65625C13.1562 5.9375 12.7812 6.09375 12.375 6.09375H11.5938C10.75 6.09375 10.0625 5.40625 10.0625 4.5625V3.78125C10.0625 3.375 10.2188 3 10.5 2.71875L12 1.21875C11.7188 1.125 11.4062 1.09375 11.0938 1.09375C9.65625 1.09375 8.40625 1.84375 7.71875 2.96875L6.90625 2.34375C7.78125 0.96875 9.34375 0.0625 11.0938 0.0625C11.8438 0.0625 12.5938 0.25 13.25 0.5625C13.5312 0.71875 13.5625 1.09375 13.3438 1.3125L11.2188 3.4375C11.125 3.53125 11.0938 3.65625 11.0938 3.78125V4.5625C11.0938 4.84375 11.3125 5.0625 11.5938 5.0625H12.375C12.5 5.0625 12.625 5.03125 12.7188 4.9375L14.8438 2.8125C15.0625 2.59375 15.4688 2.625 15.5938 2.90625C15.9062 3.5625 16.0938 4.3125 16.0938 5.0625C16.0938 6.75 15.25 8.25 13.9688 9.15625L13.25 8.40625C14.3438 7.71875 15.0625 6.46875 15.0625 5.0625Z" fill="#CFD5DD"/>
</svg>
