<svg width="15" height="12" viewBox="0 0 15 12" fill="none" xmlns="http://www.w3.org/2000/svg">
<path d="M3.375 3.75C2.69531 3.75 2.08594 3.39844 1.73438 2.8125C1.40625 2.25 1.40625 1.52344 1.73438 0.9375C2.08594 0.375 2.69531 0 3.375 0C4.03125 0 4.64062 0.375 4.99219 0.9375C5.32031 1.52344 5.32031 2.25 4.99219 2.8125C4.64062 3.39844 4.03125 3.75 3.375 3.75ZM12 3.75C11.3203 3.75 10.7109 3.39844 10.3594 2.8125C10.0312 2.25 10.0312 1.52344 10.3594 0.9375C10.7109 0.375 11.3203 0 12 0C12.6562 0 13.2656 0.375 13.6172 0.9375C13.9453 1.52344 13.9453 2.25 13.6172 2.8125C13.2656 3.39844 12.6562 3.75 12 3.75ZM0 7.00781C0 5.625 1.10156 4.5 2.48438 4.5H3.49219C3.86719 4.5 4.21875 4.59375 4.52344 4.73438C4.5 4.89844 4.5 5.08594 4.5 5.25C4.5 6.16406 4.875 6.96094 5.50781 7.5H5.48438H0.492188C0.210938 7.5 0 7.28906 0 7.00781ZM9.49219 7.5H9.46875C10.1016 6.96094 10.4766 6.16406 10.4766 5.25C10.4766 5.08594 10.4766 4.89844 10.4531 4.73438C10.7578 4.59375 11.1094 4.5 11.4844 4.5H12.4922C13.875 4.5 15 5.625 14.9766 7.00781C14.9766 7.28906 14.7656 7.5 14.4844 7.5H9.49219ZM7.5 4.125C7.07812 4.125 6.72656 4.35938 6.51562 4.6875C6.30469 5.03906 6.30469 5.48438 6.51562 5.8125C6.72656 6.16406 7.07812 6.375 7.5 6.375C7.89844 6.375 8.25 6.16406 8.46094 5.8125C8.67188 5.48438 8.67188 5.03906 8.46094 4.6875C8.25 4.35938 7.89844 4.125 7.5 4.125ZM7.5 7.5C6.67969 7.5 5.95312 7.07812 5.53125 6.375C5.13281 5.69531 5.13281 4.82812 5.53125 4.125C5.95312 3.44531 6.67969 3 7.5 3C8.29688 3 9.02344 3.44531 9.44531 4.125C9.84375 4.82812 9.84375 5.69531 9.44531 6.375C9.02344 7.07812 8.29688 7.5 7.5 7.5ZM6.11719 9.375C5.17969 9.375 4.40625 10.0312 4.17188 10.875H10.8047C10.5703 10.0312 9.79688 9.375 8.85938 9.375H6.11719ZM6.11719 8.25H8.85938C10.5938 8.25 12 9.65625 12 11.3906C12 11.7422 11.7188 12 11.3672 12H3.60938C3.25781 12 3 11.7188 3 11.3906C3 9.65625 4.38281 8.25 6.11719 8.25Z" fill="#206A83"/>
</svg>
