<svg width="14" height="17" viewBox="0 0 14 17" fill="none" xmlns="http://www.w3.org/2000/svg">
<path d="M10 4.15625C10 3.09375 9.40625 2.125 8.5 1.5625C7.5625 1.03125 6.40625 1.03125 5.5 1.5625C4.5625 2.125 4 3.09375 4 4.15625C4 5.25 4.5625 6.21875 5.5 6.78125C6.40625 7.3125 7.5625 7.3125 8.5 6.78125C9.40625 6.21875 10 5.25 10 4.15625ZM3 4.15625C3 2.75 3.75 1.4375 5 0.71875C6.21875 0 7.75 0 9 0.71875C10.2188 1.4375 11 2.75 11 4.15625C11 5.59375 10.2188 6.90625 9 7.625C7.75 8.34375 6.21875 8.34375 5 7.625C3.75 6.90625 3 5.59375 3 4.15625ZM1 15.1562H13C12.9375 12.6875 10.9062 10.6562 8.40625 10.6562H5.5625C3.0625 10.6562 1.03125 12.6875 1 15.1562ZM0 15.25C0 12.1562 2.46875 9.65625 5.5625 9.65625H8.40625C11.5 9.65625 14 12.1562 14 15.25C14 15.75 13.5625 16.1562 13.0625 16.1562H0.90625C0.40625 16.1562 0 15.75 0 15.25Z" fill="#CFD5DD"/>
</svg>
